# Blender 3.4.1
# www.blender.org
mtllib untitled.mtl
o Cube
v 1.000000 1.000000 -4.482608
v 1.000000 -1.000000 -4.482608
v 1.000000 1.000000 -2.482608
v 1.000000 -1.000000 -2.482608
v -1.000000 1.000000 -4.482608
v -1.000000 -1.000000 -4.482608
v -1.000000 1.000000 -2.482608
v -1.000000 -1.000000 -2.482608
vn -0.0000 1.0000 -0.0000
vn -0.0000 -0.0000 1.0000
vn -1.0000 -0.0000 -0.0000
vn -0.0000 -1.0000 -0.0000
vn 1.0000 -0.0000 -0.0000
vn -0.0000 -0.0000 -1.0000
vt 0.625000 0.500000
vt 0.375000 0.500000
vt 0.625000 0.750000
vt 0.375000 0.750000
vt 0.875000 0.500000
vt 0.625000 0.250000
vt 0.125000 0.500000
vt 0.375000 0.250000
vt 0.875000 0.750000
vt 0.625000 1.000000
vt 0.625000 0.000000
vt 0.375000 1.000000
vt 0.375000 0.000000
vt 0.125000 0.750000
s 0
usemtl Material
f 1/1/1 5/5/1 7/9/1 3/3/1
f 4/4/2 3/3/2 7/10/2 8/12/2
f 8/13/3 7/11/3 5/6/3 6/8/3
f 6/7/4 2/2/4 4/4/4 8/14/4
f 2/2/5 1/1/5 3/3/5 4/4/5
f 6/8/6 5/6/6 1/1/6 2/2/6
o Cube.001
v 2.244185 -0.895901 5.564364
v -2.244185 -0.895901 5.564364
v 2.244185 3.564364 5.564364
v -2.244185 3.564364 5.564364
v 5.239475 -3.872435 5.564365
v -5.239475 -3.872435 5.564365
v 5.239475 6.540898 5.564365
v -5.239475 6.540898 5.564365
v 2.244185 -0.895901 -1.438331
v -2.244185 -0.895901 -1.438331
v 2.244185 3.564364 -1.438331
v -2.244185 3.564364 -1.438331
vn 1.0000 -0.0000 -0.0000
vn -0.0000 -0.0000 1.0000
vn -0.0000 1.0000 -0.0000
vn -1.0000 -0.0000 -0.0000
vn -0.0000 -1.0000 -0.0000
vt 0.000000 0.000000
vt 0.000000 0.000000
vt 0.000000 0.000000
vt 0.000000 0.000000
vt 0.000000 0.000000
vt 0.000000 0.000000
vt 0.000000 0.000000
vt 0.000000 0.000000
vt 0.000000 0.000000
vt 0.000000 0.000000
vt 0.000000 0.000000
vt 0.000000 0.000000
s 0
usemtl Material
f 12/18/7 10/16/7 18/24/7 20/26/7
f 11/17/8 9/15/8 13/19/8 15/21/8
f 12/18/8 11/17/8 15/21/8 16/22/8
f 10/16/8 12/18/8 16/22/8 14/20/8
f 9/15/8 10/16/8 14/20/8 13/19/8
f 18/24/8 17/23/8 19/25/8 20/26/8
f 10/16/9 9/15/9 17/23/9 18/24/9
f 9/15/10 11/17/10 19/25/10 17/23/10
f 11/17/11 12/18/11 20/26/11 19/25/11
